<svg xmlns="http://www.w3.org/2000/svg" xmlns:xlink="http://www.w3.org/1999/xlink" id="Layer_1" width="359.982" height="263.987" x="0" y="0" enable-background="new 0 0 359.982 263.987" version="1.1" viewBox="0 0 359.982 263.987" xml:space="preserve"><switch><g><g><g><path fill="#EB2227" d="M201.315,192.671c-0.019-9.087,2.628-17.368,2.604-26.43c-0.037-10.703,0.891-22.082-0.537-32.565 c-0.53-3.927-0.768-9.092-2.494-12.708c-2.244-4.727-8.099-7.428-12.617-10.41c-5.318-3.518-9.447-8.604-15.075-11.307 c-3.172-1.518-5.142-2.049-7.623-5.03c-3.159-3.794-2.781-9.147-5.209-12.898c-6.049-9.317-19.758-10.36-29.246-13.379 c-7.135-2.281-19.856-4.879-25.553-9.849c-7.537-6.58-14.221-25.308-19.282-35.12L28.698,80.561L180.501,232.37l19.191-19.191 c0.323-1.976,0.872-3.945,1.116-5.671C201.491,202.648,201.327,197.628,201.315,192.671z"/><path d="M180.501,242.37L180.501,242.37c-2.652,0-5.196-1.054-7.071-2.929L21.627,87.632c-3.905-3.905-3.905-10.237,0-14.142 l57.585-57.586c2.257-2.258,5.454-3.304,8.611-2.81c3.154,0.492,5.884,2.459,7.348,5.296c1.512,2.93,3.084,6.429,4.748,10.133 c3.346,7.447,8.402,18.701,12.224,22.038c2.72,2.373,11.154,4.739,16.193,6.153c2.089,0.586,4.062,1.139,5.828,1.704 c1.836,0.584,4.039,1.125,6.371,1.697c9.532,2.34,21.396,5.253,28.218,15.761c1.974,3.051,2.787,6.165,3.439,8.668 c0.297,1.14,0.747,2.863,1.069,3.279c0.587,0.705,0.61,0.732,2.602,1.64c0.52,0.237,1.067,0.486,1.651,0.766 c4.512,2.166,8.02,5.195,11.115,7.867c1.797,1.552,3.495,3.018,5.161,4.12c0.825,0.544,1.711,1.083,2.608,1.63 c4.662,2.844,10.463,6.383,13.524,12.831c2.086,4.372,2.644,9.333,3.092,13.319c0.092,0.813,0.18,1.601,0.279,2.34 c1.12,8.224,0.934,16.605,0.754,24.711c-0.07,3.184-0.138,6.192-0.127,9.158c0.014,5.306-0.712,10.101-1.413,14.738 c-0.617,4.076-1.199,7.925-1.191,11.706c0.002,0.731,0.007,1.467,0.013,2.205c0.032,4.519,0.065,9.191-0.616,14.044 c-0.182,1.285-0.441,2.477-0.692,3.629c-0.179,0.817-0.347,1.588-0.457,2.266c-0.339,2.067-1.317,3.976-2.798,5.456 l-19.191,19.191C185.697,241.316,183.154,242.37,180.501,242.37z M42.84,80.561l137.661,137.667l9.98-9.98 c0.181-0.826,0.35-1.605,0.426-2.14c0.476-3.386,0.448-7.138,0.42-11.109c-0.005-0.768-0.011-1.536-0.013-2.302 c-0.011-5.31,0.715-10.105,1.416-14.743c0.616-4.073,1.198-7.919,1.188-11.686c-0.011-3.214,0.062-6.492,0.132-9.662 c0.17-7.667,0.331-14.909-0.577-21.58c-0.12-0.891-0.227-1.827-0.335-2.793c-0.267-2.365-0.631-5.604-1.276-6.958 c-0.527-1.086-4.011-3.212-5.882-4.354c-1.052-0.642-2.14-1.305-3.219-2.017c-2.742-1.814-5.113-3.862-7.205-5.668 c-2.462-2.126-4.588-3.962-6.689-4.97c-0.452-0.216-0.886-0.413-1.299-0.601c-2.74-1.248-6.149-2.801-9.682-7.046 c-3.165-3.802-4.254-7.978-5.049-11.027c-0.252-0.967-0.633-2.429-0.878-2.851c-2.491-3.837-9.458-5.547-16.194-7.201 c-2.55-0.627-5.188-1.274-7.679-2.066c-1.438-0.459-3.243-0.966-5.153-1.502c-7.939-2.227-17.819-4.998-23.942-10.341 c-6.36-5.553-11.36-15.763-15.761-25.46L42.84,80.561z"/></g><g><path fill="#FFF" d="M199.693,213.179L332.312,80.561l-59.642-59.638H88.335l-2.052,2.052 c5.062,9.812,11.745,28.54,19.282,35.12c5.696,4.97,18.418,7.567,25.553,9.849c9.488,3.019,23.197,4.062,29.246,13.379 c2.428,3.751,2.05,9.104,5.209,12.898c2.481,2.981,4.451,3.513,7.623,5.03c5.628,2.702,9.756,7.788,15.075,11.307 c4.519,2.983,10.373,5.684,12.617,10.41c1.726,3.616,1.964,8.781,2.494,12.708c1.428,10.483,0.5,21.862,0.537,32.565 c0.023,9.062-2.623,17.343-2.604,26.43c0.013,4.957,0.177,9.977-0.506,14.837C200.565,209.234,200.016,211.204,199.693,213.179z"/><path d="M199.69,223.18c-1.551,0-3.114-0.361-4.56-1.102c-3.863-1.981-6.008-6.229-5.307-10.513 c0.196-1.196,0.439-2.312,0.654-3.298c0.182-0.833,0.354-1.62,0.43-2.159c0.476-3.387,0.448-7.138,0.42-11.109 c-0.005-0.768-0.011-1.536-0.013-2.301c-0.011-5.311,0.715-10.106,1.416-14.744c0.616-4.073,1.198-7.919,1.188-11.686 c-0.011-3.214,0.062-6.492,0.132-9.663c0.17-7.667,0.331-14.909-0.577-21.579c-0.12-0.891-0.227-1.827-0.335-2.793 c-0.267-2.365-0.631-5.604-1.276-6.958c-0.527-1.086-4.011-3.212-5.882-4.354c-1.052-0.642-2.14-1.305-3.219-2.018 c-2.742-1.814-5.113-3.861-7.205-5.667c-2.462-2.126-4.588-3.962-6.689-4.97c-0.452-0.216-0.887-0.413-1.299-0.601 c-2.74-1.248-6.149-2.801-9.682-7.046c-3.165-3.801-4.254-7.978-5.049-11.027c-0.252-0.967-0.633-2.429-0.878-2.851 c-2.491-3.837-9.458-5.547-16.194-7.201c-2.55-0.627-5.188-1.274-7.679-2.066c-1.438-0.459-3.242-0.966-5.153-1.502 c-7.939-2.227-17.819-4.998-23.942-10.341c-7.121-6.217-12.538-18.273-17.316-28.91c-1.55-3.451-3.015-6.71-4.279-9.161 c-1.995-3.866-1.26-8.579,1.816-11.656l2.052-2.052c1.875-1.875,4.418-2.929,7.071-2.929h184.335 c2.652,0,5.195,1.053,7.07,2.929l59.642,59.638c1.876,1.876,2.93,4.419,2.93,7.071c0,2.652-1.054,5.196-2.929,7.071 L206.764,220.25C204.843,222.171,202.282,223.18,199.69,223.18z M100.998,30.923c3.29,7.273,7.713,16.644,11.144,19.639 c2.72,2.373,11.154,4.739,16.194,6.153c2.088,0.586,4.061,1.139,5.828,1.704c1.836,0.584,4.039,1.125,6.371,1.697 c9.532,2.34,21.396,5.253,28.218,15.761c1.974,3.051,2.787,6.165,3.439,8.668c0.297,1.14,0.747,2.863,1.069,3.279 c0.587,0.705,0.61,0.732,2.602,1.64c0.52,0.237,1.067,0.486,1.651,0.766c4.512,2.166,8.02,5.195,11.115,7.867 c1.797,1.552,3.495,3.018,5.161,4.12c0.825,0.544,1.712,1.083,2.608,1.63c4.662,2.844,10.464,6.383,13.524,12.831 c2.086,4.372,2.644,9.333,3.092,13.319c0.092,0.813,0.18,1.6,0.279,2.339c1.12,8.224,0.934,16.605,0.754,24.711 c-0.07,3.184-0.138,6.192-0.127,9.158c0.014,5.306-0.712,10.101-1.413,14.738c-0.317,2.095-0.625,4.13-0.849,6.127 L318.169,80.562l-49.642-49.638H100.998z"/></g></g></g></switch></svg>